<svg id="Layer_1" data-name="Layer 1" xmlns="http://www.w3.org/2000/svg" viewBox="0 0 198.75 316.52"><defs><style>.cls-1{fill:#ed4b13;}.cls-2{fill:#ed4a12;}.cls-3{fill:#fffefd;}</style></defs><title>logo</title><path class="cls-1" d="M377.44,254.79c-5.23,9.75-9.76,19.56-15.78,28.35-13.33,19.46-32.54,30.83-55.24,35.72C278.2,325,251.15,321,227,304.66c-21.68-14.64-34.35-35.87-39.42-61.37a135.91,135.91,0,0,1-2.94-28.79,169.62,169.62,0,0,1,13.92-64,349.06,349.06,0,0,1,22.09-43.31c9.17-15.11,21.38-28.06,37.52-36,23-11.3,45-7.82,65.23,7.31,15.07,11.26,25.7,26.12,34.65,42.5,11.72,21.46,19,44.43,23.12,68.3a164.58,164.58,0,0,1,2,36c-0.49,9.77-3.69,19.39-5.72,29.49M251.21,171c1.33-7,1.62-13.95-1.71-21.63-4.21,16.72-14.31,29.48-21.78,43.59-2.33,4.4-4.6,8.84-6.6,13.39-8.7,19.72-11.34,39.87-3,60.34,14.05,34.37,55.86,51.37,92.26,37.78,26.45-9.87,44-33.63,44.72-61.4,0.37-15.17-3.91-29.44-10.31-43.16-7.4-15.86-17.54-30.62-19.66-49.3a8.35,8.35,0,0,0-1.32,1.93c-2,12.57-2.34,25.18.31,37.67,2,9.38,5.25,18.52,6.78,28,1.62,10,1.41,20.26-3.69,29.65-5.88,10.83-18.71,15.49-28.82,10.52-9.52-4.68-13.69-17-8.56-27.44,1.87-3.82,5.13-7.81,8.8-9.68,4.16-2.13,9.49-2,14.67-2.87,0.71-9.44.27-19.9-3.54-29.83-6.45-16.83-13.34-33.49-19.94-50.27-2.06-5.24-3.76-10.62-5.76-16.32-1.5,4.68-2.56,8.88-4.18,12.85q-8.82,21.62-18,43.1c-11.6,27.22-9.26,53,7.69,77.37,1,1.41,2,2.79,3.24,4.45-14.51,1.23-28.68-7.87-33.35-21.1-5.31-15-3.28-29.72,2.5-44.18C245,186.89,247.95,179.33,251.21,171Z" transform="translate(-184.64 -5.05)"/><path class="cls-2" d="M320.24,51c-16.34,4.61-32.72,4.91-49,3.8-14.54-1-29.19-3.22-41.71-11.83-4.13-2.84-8-5.9-8.25-12-0.36-8.8,5.52-12.54,11.71-16a74.37,74.37,0,0,1,31.63-8.89c9.57-.6,19.19-1.21,28.76-0.94,14.74,0.42,29.16,2.95,42.36,10a24.12,24.12,0,0,1,7.58,5.91c7.41,9.46,3.82,15.64-4.7,21.66-5.29,3.75-12,5.55-18.44,8.25m-30.32-3c4.76-.33,9.69,0,14.24-1.15,8.58-2.17,17.27-4.47,25.3-8.07s8-9,.64-13.84c-11.62-7.73-25-9.11-38.3-9.7a156.67,156.67,0,0,0-32.49,2.05c-7.64,1.27-15.07,4.66-22.19,8-5.67,2.64-6.13,7.83-1,11.63a50.11,50.11,0,0,0,14.27,7C262.91,47.92,275.89,48.49,289.92,48Z" transform="translate(-184.64 -5.05)"/><path class="cls-3" d="M251.06,171.39c-3.11,7.94-6,15.5-9.05,23-5.78,14.45-7.81,29.13-2.5,44.18,4.67,13.23,18.84,22.33,33.35,21.1-1.21-1.66-2.25-3-3.24-4.45-17-24.36-19.29-50.14-7.69-77.37q9.15-21.48,18-43.1c1.62-4,2.68-8.17,4.18-12.85,2,5.7,3.7,11.08,5.76,16.32,6.59,16.78,13.49,33.44,19.94,50.27,3.81,9.93,4.24,20.39,3.54,29.83-5.18.9-10.51,0.74-14.67,2.87-3.67,1.87-6.93,5.86-8.8,9.68-5.13,10.49-1,22.76,8.56,27.44,10.12,5,22.94.31,28.82-10.52,5.1-9.39,5.31-19.61,3.69-29.65-1.52-9.44-4.78-18.58-6.78-28-2.66-12.49-2.35-25.09-.31-37.67a8.35,8.35,0,0,1,1.32-1.93c2.12,18.69,12.26,33.44,19.66,49.3,6.4,13.72,10.68,28,10.31,43.16-0.67,27.77-18.27,51.53-44.72,61.4-36.4,13.59-78.21-3.41-92.26-37.78-8.37-20.47-5.73-40.62,3-60.34,2-4.55,4.28-9,6.6-13.39,7.47-14.12,17.58-26.87,21.78-43.59C252.83,157.05,252.55,164,251.06,171.39Z" transform="translate(-184.64 -5.05)"/></svg>